<?xml version="1.0" standalone="no"?>
<!DOCTYPE svg PUBLIC "-//W3C//DTD SVG 20010904//EN"
 "http://www.w3.org/TR/2001/REC-SVG-20010904/DTD/svg10.dtd">
<svg version="1.0" xmlns="http://www.w3.org/2000/svg"
 width="350.000000pt" height="228.000000pt" viewBox="0 0 350.000000 228.000000"
 preserveAspectRatio="xMidYMid meet">

<g transform="translate(0.000000,228.000000) scale(0.100000,-0.100000)"
fill="#000000" stroke="none">
<path d="M1320 1095 c0 -78 17 -105 22 -35 4 54 22 56 26 3 2 -29 8 -43 18
-43 10 0 14 12 14 44 0 46 -19 72 -45 62 -11 -4 -15 1 -15 19 0 14 -4 25 -10
25 -6 0 -10 -32 -10 -75z"/>
<path d="M1618 1163 c-2 -5 -3 -37 -3 -72 0 -74 22 -99 27 -31 4 54 22 56 26
2 4 -50 25 -53 30 -4 4 42 -14 75 -39 69 -15 -4 -19 0 -19 19 0 22 -15 33 -22
17z"/>
<path d="M1830 1100 c0 -38 2 -70 4 -70 2 0 11 -3 20 -6 11 -4 16 -1 16 10 0
9 -4 16 -10 16 -6 0 -10 27 -10 60 0 33 -4 60 -10 60 -6 0 -10 -30 -10 -70z"/>
<path d="M2046 1148 c-18 -29 -10 -128 10 -128 10 0 14 13 14 40 0 22 5 40 10
40 14 0 12 27 -2 33 -10 4 -10 6 0 6 17 1 15 31 -3 31 -8 0 -21 -10 -29 -22z"/>
<path d="M2116 1162 c-3 -6 -1 -14 5 -17 15 -10 25 3 12 16 -7 7 -13 7 -17 1z"/>
<path d="M2156 1162 c-3 -6 -1 -14 5 -17 15 -10 25 3 12 16 -7 7 -13 7 -17 1z"/>
<path d="M2620 1095 c0 -78 17 -105 22 -35 4 54 22 56 26 3 2 -29 8 -43 18
-43 10 0 14 12 14 44 0 46 -19 72 -45 62 -11 -4 -15 1 -15 19 0 14 -4 25 -10
25 -6 0 -10 -32 -10 -75z"/>
<path d="M2837 1163 c-12 -11 -8 -23 8 -23 8 0 15 7 15 15 0 16 -12 20 -23 8z"/>
<path d="M2890 1095 c0 -43 4 -75 10 -75 6 0 10 9 10 20 0 11 4 20 9 20 5 0
13 -9 16 -20 3 -11 13 -20 22 -20 11 0 13 5 8 18 -9 21 -9 40 0 70 5 16 3 22
-8 22 -8 0 -17 -9 -20 -20 -9 -35 -27 -22 -27 20 0 22 -4 40 -10 40 -6 0 -10
-32 -10 -75z"/>
<path d="M990 1090 c0 -56 3 -70 15 -70 10 0 15 10 15 30 0 23 4 30 20 30 16
0 20 -7 20 -30 0 -20 5 -30 15 -30 12 0 15 14 15 70 0 56 -3 70 -15 70 -10 0
-15 -10 -15 -30 0 -23 -4 -30 -20 -30 -16 0 -20 7 -20 30 0 20 -5 30 -15 30
-12 0 -15 -14 -15 -70z"/>
<path d="M2320 1145 c0 -8 9 -15 20 -15 18 0 20 -7 20 -55 0 -30 5 -55 10 -55
6 0 10 24 10 54 0 46 3 54 21 59 35 9 11 27 -37 27 -32 0 -44 -4 -44 -15z"/>
<path d="M1121 1116 c-17 -20 -10 -77 12 -90 25 -16 51 4 55 43 4 36 -12 61
-38 61 -10 0 -23 -6 -29 -14z m44 -41 c0 -16 -5 -30 -12 -32 -14 -5 -28 40
-18 57 12 19 30 4 30 -25z"/>
<path d="M1225 1114 c-19 -19 -14 -72 8 -86 29 -18 67 -2 52 22 -5 8 -11 8
-19 1 -16 -14 -26 -4 -26 25 0 28 18 41 26 20 9 -24 26 -19 22 7 -4 28 -39 34
-63 11z"/>
<path d="M1432 1118 c-19 -19 -14 -37 13 -50 13 -6 22 -15 19 -20 -3 -5 -12
-4 -19 2 -10 8 -15 8 -20 -1 -9 -14 14 -30 40 -27 28 4 32 44 6 58 -12 6 -21
16 -21 22 0 7 5 6 15 -2 18 -15 30 -7 22 15 -7 18 -38 20 -55 3z"/>
<path d="M1518 1105 c-23 -51 19 -103 61 -76 7 5 10 14 6 20 -5 8 -11 9 -19 2
-16 -14 -26 -4 -26 25 0 28 18 41 26 20 8 -22 24 -20 24 3 0 38 -55 42 -72 6z"/>
<path d="M1720 1086 c0 -49 12 -64 53 -64 26 0 27 2 27 54 0 63 -17 73 -22 12
-4 -59 -28 -63 -28 -4 0 34 -4 46 -15 46 -11 0 -15 -12 -15 -44z"/>
<path d="M1902 1118 c-17 -17 -15 -73 3 -88 8 -6 22 -10 31 -8 24 4 31 29 7
26 -10 -2 -18 2 -18 7 0 6 10 10 23 10 16 -1 22 5 22 20 0 25 -18 45 -40 45
-9 0 -21 -5 -28 -12z m38 -23 c0 -8 -4 -15 -9 -15 -13 0 -22 16 -14 24 11 11
23 6 23 -9z"/>
<path d="M2112 1078 l3 -53 38 -2 37 -1 0 55 c0 64 -22 71 -30 9 -7 -51 -24
-50 -28 2 -2 23 -8 42 -13 42 -6 0 -9 -22 -7 -52z"/>
<path d="M2220 1073 c0 -29 5 -53 10 -53 6 0 10 18 10 40 0 29 4 40 15 40 8 0
15 6 15 14 0 9 -10 13 -25 12 -23 -1 -25 -5 -25 -53z"/>
<path d="M2431 1121 c-9 -6 -15 -25 -15 -46 0 -39 16 -57 48 -53 28 4 33 29 5
26 -12 -2 -24 3 -27 10 -3 10 4 13 24 10 34 -4 44 21 19 46 -18 18 -33 20 -54
7z m39 -32 c0 -5 -7 -9 -15 -9 -15 0 -20 12 -9 23 8 8 24 -1 24 -14z"/>
<path d="M2532 1118 c-17 -17 -15 -73 3 -88 17 -14 47 -10 53 8 2 8 -5 11 -19
10 -25 -3 -36 20 -24 50 6 16 8 16 20 -2 18 -24 39 -12 25 15 -12 21 -40 25
-58 7z"/>
<path d="M2730 1073 c0 -63 18 -71 22 -10 2 23 8 42 13 42 6 0 11 -19 13 -42
2 -29 8 -43 18 -43 10 0 14 12 14 44 0 49 -13 65 -52 63 -27 -2 -28 -4 -28
-54z"/>
<path d="M2837 1123 c-4 -3 -7 -28 -7 -55 0 -36 4 -48 15 -48 12 0 15 13 15
55 0 51 -7 65 -23 48z"/>
<path d="M2655 950 c-4 -6 -3 -16 3 -22 6 -6 12 -6 17 2 4 6 3 16 -3 22 -6 6
-12 6 -17 -2z"/>
<path d="M1260 930 c0 -12 -5 -17 -14 -14 -34 13 -63 -65 -34 -94 7 -7 27 -12
45 -12 l33 0 0 70 c0 56 -3 70 -15 70 -8 0 -15 -9 -15 -20z m-2 -67 c-4 -39
-28 -42 -28 -4 0 21 5 31 16 31 11 0 14 -8 12 -27z"/>
<path d="M1350 938 c0 -6 5 -38 12 -70 13 -65 38 -77 49 -23 6 30 9 28 24 -20
2 -8 11 -15 18 -15 16 0 43 112 32 130 -14 23 -25 7 -25 -35 0 -51 -14 -60
-23 -15 -8 39 -26 38 -34 -1 -7 -38 -23 -19 -23 29 0 22 -5 32 -15 32 -8 0
-15 -5 -15 -12z"/>
<path d="M1512 939 c2 -6 8 -10 13 -10 5 0 11 4 13 10 2 6 -4 11 -13 11 -9 0
-15 -5 -13 -11z"/>
<path d="M1904 880 c1 -49 5 -70 14 -70 7 0 12 15 12 40 0 29 4 40 15 40 11 0
15 -11 15 -40 0 -28 4 -40 14 -40 11 0 15 12 14 40 0 44 -20 73 -43 64 -10 -4
-15 0 -15 15 0 12 -6 21 -14 21 -10 0 -13 -17 -12 -70z"/>
<path d="M2113 923 c-8 -16 -9 -31 -3 -38 5 -6 7 -25 4 -43 -4 -24 -2 -32 10
-32 12 0 16 10 16 39 0 22 5 42 13 44 9 4 8 8 -3 16 -13 9 -12 12 5 25 20 15
19 15 -5 16 -17 0 -29 -8 -37 -27z"/>
<path d="M2310 878 c0 -68 0 -68 28 -68 42 0 50 11 50 68 0 56 -6 65 -50 67
l-28 2 0 -69z m50 27 c0 -8 -7 -15 -15 -15 -8 0 -15 7 -15 15 0 8 7 15 15 15
8 0 15 -7 15 -15z m-2 -58 c2 -10 -3 -17 -12 -17 -10 0 -16 9 -16 21 0 24 23
21 28 -4z"/>
<path d="M2590 885 c0 -50 4 -67 15 -72 21 -7 32 4 17 19 -7 7 -12 36 -12 65
0 29 -4 53 -10 53 -6 0 -10 -28 -10 -65z"/>
<path d="M1638 922 c-3 -9 -2 -38 1 -62 5 -37 10 -46 29 -48 12 -2 22 1 22 7
0 6 -4 11 -10 11 -15 0 -12 57 3 64 10 5 10 7 0 12 -7 3 -13 12 -13 20 0 20
-27 17 -32 -4z"/>
<path d="M2188 922 c-3 -9 -2 -38 1 -62 5 -37 10 -46 29 -48 12 -2 22 1 22 7
0 6 -4 11 -9 11 -5 0 -11 14 -13 30 -3 20 0 30 9 30 18 0 16 17 -3 24 -8 3
-12 10 -9 16 3 5 0 10 -8 10 -8 0 -17 -8 -19 -18z"/>
<path d="M1123 912 c-20 -3 -23 -9 -23 -53 0 -27 5 -49 10 -49 6 0 10 18 10
40 0 29 4 40 15 40 11 0 15 -11 15 -40 0 -29 4 -40 15 -40 11 0 15 12 15 45 0
48 -16 64 -57 57z"/>
<path d="M1585 913 c-17 -3 -20 -10 -17 -53 5 -59 22 -67 22 -10 0 29 4 40 15
40 8 0 15 7 15 15 0 8 -3 14 -7 14 -5 -1 -17 -4 -28 -6z"/>
<path d="M1728 909 c-26 -14 -22 -34 10 -59 l27 -21 -28 6 c-21 4 -28 2 -25
-7 3 -7 18 -13 34 -13 23 0 30 5 32 23 3 17 -2 25 -17 29 -12 3 -21 10 -21 15
0 5 9 6 20 3 24 -8 28 20 4 29 -19 7 -15 8 -36 -5z"/>
<path d="M1822 904 c-40 -28 -19 -99 28 -92 13 1 25 9 28 16 3 9 -3 11 -22 6
-24 -6 -26 -4 -26 25 0 21 5 31 15 31 8 0 15 -4 15 -10 0 -5 5 -10 10 -10 17
0 11 29 -8 39 -14 7 -25 6 -40 -5z"/>
<path d="M2027 909 c-22 -13 -13 -29 13 -22 11 3 20 1 20 -5 0 -6 -10 -12 -22
-14 -17 -2 -23 -10 -23 -28 0 -21 5 -26 33 -28 32 -3 32 -3 32 42 0 51 -21 72
-53 55z m33 -69 c0 -5 -7 -10 -15 -10 -8 0 -15 5 -15 10 0 6 7 10 15 10 8 0
15 -4 15 -10z"/>
<path d="M2426 904 c-20 -19 -21 -68 -2 -84 17 -13 63 -10 57 5 -2 6 -12 9
-23 7 -10 -2 -18 2 -18 7 0 6 11 11 25 11 20 0 25 5 25 25 0 14 -8 29 -19 35
-25 13 -27 13 -45 -6z m44 -24 c0 -5 -7 -10 -15 -10 -8 0 -15 5 -15 10 0 6 7
10 15 10 8 0 15 -4 15 -10z"/>
<path d="M2543 913 c-20 -4 -23 -11 -23 -54 0 -27 5 -49 10 -49 6 0 10 18 10
40 0 29 4 40 15 40 8 0 15 7 15 15 0 8 -1 14 -2 14 -2 -1 -13 -4 -25 -6z"/>
<path d="M2730 913 c-23 -4 -25 -7 -22 -53 5 -60 22 -67 22 -10 0 29 4 40 15
40 11 0 15 -11 15 -40 0 -29 4 -40 15 -40 21 0 20 73 -1 94 -8 9 -16 15 -17
15 -1 -1 -13 -4 -27 -6z"/>
<path d="M992 863 c3 -48 3 -48 41 -51 l37 -3 0 50 c0 34 -4 51 -12 51 -8 0
-13 -14 -13 -37 0 -20 -6 -38 -12 -40 -9 -3 -13 8 -13 36 0 30 -4 41 -16 41
-12 0 -14 -10 -12 -47z"/>
<path d="M1510 860 c0 -38 4 -50 15 -50 11 0 15 12 15 50 0 38 -4 50 -15 50
-11 0 -15 -12 -15 -50z"/>
<path d="M2650 860 c0 -38 4 -50 15 -50 11 0 15 12 15 50 0 38 -4 50 -15 50
-11 0 -15 -12 -15 -50z"/>
<path d="M2141 534 c0 -11 3 -14 6 -6 3 7 2 16 -1 19 -3 4 -6 -2 -5 -13z"/>
<path d="M2661 514 c0 -11 3 -14 6 -6 3 7 2 16 -1 19 -3 4 -6 -2 -5 -13z"/>
<path d="M1971 494 c0 -11 3 -14 6 -6 3 7 2 16 -1 19 -3 4 -6 -2 -5 -13z"/>
<path d="M1181 484 c0 -11 3 -14 6 -6 3 7 2 16 -1 19 -3 4 -6 -2 -5 -13z"/>
<path d="M1381 474 c0 -11 3 -14 6 -6 3 7 2 16 -1 19 -3 4 -6 -2 -5 -13z"/>
</g>
</svg>
